<svg width="30" height="30" viewBox="0 0 30 30" fill="none" xmlns="http://www.w3.org/2000/svg">
<path fill-rule="evenodd" clip-rule="evenodd" d="M5.03125 14.25C5.41478 9.07745 9.73299 5 15.0035 5C14.1727 5 13.4329 5.36421 12.8243 5.92113C12.2188 6.47525 11.7071 7.24878 11.2932 8.16315C10.8769 9.08292 10.5536 10.1587 10.3347 11.3261C10.1592 12.2619 10.0524 13.2485 10.0169 14.25H5.03125ZM5.03125 15.75H10.0169C10.0524 16.7515 10.1592 17.7381 10.3347 18.6739C10.5536 19.8413 10.8769 20.9171 11.2932 21.8368C11.7071 22.7512 12.2188 23.5247 12.8243 24.0789C13.4329 24.6358 14.1727 25 15.0035 25C9.73299 25 5.41478 20.9225 5.03125 15.75Z" fill="white"/>
<path d="M15.0035 6.39535C14.7285 6.39535 14.3733 6.51236 13.9602 6.89042C13.544 7.27126 13.1274 7.86815 12.7593 8.68137C12.3936 9.4892 12.0967 10.4644 11.8924 11.5542C11.7315 12.4124 11.6317 13.3222 11.5966 14.25H18.4105C18.3754 13.3222 18.2756 12.4124 18.1147 11.5542C17.9104 10.4644 17.6135 9.48921 17.2478 8.68137C16.8797 7.86815 16.4631 7.27126 16.0469 6.89042C15.6338 6.51236 15.2786 6.39535 15.0035 6.39535Z" fill="white"/>
<path d="M11.8924 18.4458C12.0967 19.5356 12.3936 20.5108 12.7593 21.3186C13.1274 22.1319 13.544 22.7287 13.9602 23.1096C14.3733 23.4876 14.7285 23.6046 15.0035 23.6046C15.2786 23.6046 15.6338 23.4876 16.0469 23.1096C16.4631 22.7287 16.8797 22.1319 17.2478 21.3186C17.6135 20.5108 17.9104 19.5356 18.1147 18.4458C18.2756 17.5876 18.3754 16.6778 18.4105 15.75H11.5966C11.6317 16.6778 11.7315 17.5876 11.8924 18.4458Z" fill="white"/>
<path d="M15.0035 5C15.8344 5 16.5742 5.36421 17.1827 5.92113C17.7883 6.47525 18.3 7.24878 18.7138 8.16315C19.1302 9.08292 19.4535 10.1587 19.6724 11.3261C19.8479 12.2619 19.9547 13.2485 19.9902 14.25H24.9758C24.5923 9.07745 20.2741 5 15.0035 5Z" fill="white"/>
<path d="M19.6724 18.6739C19.4535 19.8413 19.1302 20.9171 18.7138 21.8368C18.3 22.7512 17.7883 23.5247 17.1827 24.0789C16.5742 24.6358 15.8344 25 15.0035 25C20.2741 25 24.5923 20.9225 24.9758 15.75H19.9902C19.9547 16.7515 19.8479 17.7381 19.6724 18.6739Z" fill="white"/>
</svg>
