<svg width="30" height="30" viewBox="0 0 30 30" fill="none" xmlns="http://www.w3.org/2000/svg">
<path opacity="0.5" d="M17.2 6H12.8C8.65164 6 6.57746 6 5.28873 7.31802C4 8.63604 4 10.7574 4 15C4 19.2426 4 21.364 5.28873 22.682C6.57746 24 8.65164 24 12.8 24H17.2C21.3484 24 23.4225 24 24.7113 22.682C26 21.364 26 19.2426 26 15C26 10.7574 26 8.63604 24.7113 7.31802C23.4225 6 21.3484 6 17.2 6Z" fill="#59EFCC"/>
<path d="M22.1313 11.034C22.4813 10.7423 22.5286 10.2221 22.2369 9.87206C21.9452 9.52204 21.425 9.47474 21.075 9.76643L18.7002 11.7454C17.674 12.6006 16.9614 13.1925 16.3599 13.5794C15.7776 13.9539 15.3827 14.0796 15.0031 14.0796C14.6236 14.0796 14.2287 13.9539 13.6464 13.5794C13.0448 13.1925 12.3323 12.6006 11.3061 11.7454L8.9313 9.76643C8.58127 9.47474 8.06105 9.52204 7.76936 9.87206C7.47767 10.2221 7.52497 10.7423 7.87499 11.034L10.2911 13.0475C11.2661 13.86 12.0564 14.5185 12.7538 14.9671C13.4804 15.4344 14.188 15.7296 15.0031 15.7296C15.8183 15.7296 16.5259 15.4344 17.2525 14.9671C17.9499 14.5185 18.7402 13.86 19.7152 13.0474L22.1313 11.034Z" fill="#59EFCC"/>
</svg>
