<svg width="18" height="17" viewBox="0 0 18 17" fill="none" xmlns="http://www.w3.org/2000/svg">
<path d="M13.2586 0.355815C11.4901 0.252779 9.97598 1.37329 9.13623 1.37329C8.28376 1.37329 6.99869 0.407333 5.59911 0.433092C3.77966 0.458851 2.08744 1.50209 1.15863 3.16354C-0.749892 6.48644 0.662411 11.4064 2.50731 14.1111C3.41068 15.4506 4.49217 16.9188 5.91719 16.8673C7.26588 16.8158 7.80026 15.9786 9.42887 15.9786C11.0702 15.9786 11.541 16.8673 12.966 16.8415C14.4419 16.8158 15.3707 15.5021 16.2741 14.1626C17.3047 12.6428 17.7246 11.1617 17.75 11.0844C17.7246 11.0587 14.8999 9.9639 14.8745 6.66675C14.8491 3.91055 17.1011 2.59684 17.2029 2.51957C15.9305 0.613404 13.9457 0.407333 13.2586 0.355815Z" fill="#242424"/>
</svg>
