<svg width="30" height="30" viewBox="0 0 30 30" fill="none" xmlns="http://www.w3.org/2000/svg">
<path d="M6 9.52381C6 9.12932 6.32671 8.80952 6.72973 8.80952H11.5179C11.5244 7.9683 11.6155 6.81504 12.4504 6.01668C13.1074 5.38839 14.0081 5 15 5C15.9919 5 16.8926 5.38839 17.5496 6.01668C18.3844 6.81504 18.4756 7.9683 18.4821 8.80952H23.2703C23.6733 8.80952 24 9.12932 24 9.52381C24 9.9183 23.6733 10.2381 23.2703 10.2381H6.72973C6.32671 10.2381 6 9.9183 6 9.52381Z" fill="#F75E5E"/>
<path d="M14.6066 25H15.3935C18.101 25 19.4547 25 20.3349 24.1368C21.2151 23.2736 21.3052 21.8576 21.4853 19.0257L21.7448 14.9452C21.8425 13.4086 21.8913 12.6404 21.4498 12.1535C21.0082 11.6667 20.2625 11.6667 18.7712 11.6667H11.2288C9.7375 11.6667 8.99182 11.6667 8.55026 12.1535C8.1087 12.6404 8.15756 13.4086 8.25528 14.9452L8.51479 19.0257C8.69489 21.8576 8.78494 23.2736 9.66513 24.1368C10.5453 25 11.8991 25 14.6066 25Z" fill="#F75E5E"/>
</svg>
