<svg width="30" height="30" viewBox="0 0 30 30" fill="none" xmlns="http://www.w3.org/2000/svg">
<path opacity="0.5" d="M5 15C5 16.6394 5.42496 17.1915 6.27489 18.2957C7.97196 20.5004 10.8181 23 15 23C19.1819 23 22.028 20.5004 23.7251 18.2957C24.575 17.1915 25 16.6394 25 15C25 13.3606 24.575 12.8085 23.7251 11.7043C22.028 9.49956 19.1819 7 15 7C10.8181 7 7.97196 9.49956 6.27489 11.7043C5.42496 12.8085 5 13.3606 5 15Z" fill="#59EFCC"/>
<path fill-rule="evenodd" clip-rule="evenodd" d="M11.25 15C11.25 12.9289 12.9289 11.25 15 11.25C17.0711 11.25 18.75 12.9289 18.75 15C18.75 17.0711 17.0711 18.75 15 18.75C12.9289 18.75 11.25 17.0711 11.25 15ZM12.75 15C12.75 13.7574 13.7574 12.75 15 12.75C16.2426 12.75 17.25 13.7574 17.25 15C17.25 16.2426 16.2426 17.25 15 17.25C13.7574 17.25 12.75 16.2426 12.75 15Z" fill="#59EFCC"/>
</svg>
