<svg width="30" height="30" viewBox="0 0 30 30" fill="none" xmlns="http://www.w3.org/2000/svg">
<path fill-rule="evenodd" clip-rule="evenodd" d="M16.803 8.33333C16.803 6.49238 18.3022 5 20.1515 5C22.0008 5 23.5 6.49238 23.5 8.33333C23.5 10.1743 22.0008 11.6667 20.1515 11.6667C19.2177 11.6667 18.3738 11.286 17.7671 10.6735L13.1317 13.8295C13.1745 14.0425 13.197 14.2625 13.197 14.4872C13.197 14.9322 13.109 15.3576 12.9496 15.7464L18.0323 19.0858C18.6092 18.6161 19.3473 18.3333 20.1515 18.3333C22.0008 18.3333 23.5 19.8257 23.5 21.6667C23.5 23.5076 22.0008 25 20.1515 25C18.3022 25 16.803 23.5076 16.803 21.6667C16.803 21.1845 16.9062 20.7255 17.0917 20.3111L12.0501 16.9987C11.462 17.5098 10.6916 17.8205 9.84848 17.8205C7.99917 17.8205 6.5 16.3281 6.5 14.4872C6.5 12.6462 7.99917 11.1538 9.84848 11.1538C10.9119 11.1538 11.8585 11.6473 12.4714 12.4152L16.9639 9.35642C16.8594 9.03359 16.803 8.6896 16.803 8.33333Z" fill="white"/>
</svg>
