<svg width="30" height="30" viewBox="0 0 30 30" fill="none" xmlns="http://www.w3.org/2000/svg">
<path d="M10.75 5.5C10.75 5.08579 10.4142 4.75 10 4.75C9.58579 4.75 9.25 5.08579 9.25 5.5V7.07926C7.81067 7.19451 6.86577 7.47737 6.17157 8.17157C5.47737 8.86577 5.19451 9.81067 5.07926 11.25H24.9207C24.8055 9.81067 24.5226 8.86577 23.8284 8.17157C23.1342 7.47737 22.1893 7.19451 20.75 7.07926V5.5C20.75 5.08579 20.4142 4.75 20 4.75C19.5858 4.75 19.25 5.08579 19.25 5.5V7.0129C18.5847 7 17.839 7 17 7H13C12.161 7 11.4153 7 10.75 7.0129V5.5Z" fill="white"/>
<path fill-rule="evenodd" clip-rule="evenodd" d="M25 15V17C25 20.7712 25 22.6569 23.8284 23.8284C22.6569 25 20.7712 25 17 25H13C9.22876 25 7.34315 25 6.17157 23.8284C5 22.6569 5 20.7712 5 17V15C5 14.161 5 13.4153 5.0129 12.75H24.9871C25 13.4153 25 14.161 25 15ZM19 16.25C19.4142 16.25 19.75 16.5858 19.75 17V18.25L21 18.25C21.4142 18.25 21.75 18.5858 21.75 19C21.75 19.4142 21.4142 19.75 21 19.75H19.75V21C19.75 21.4142 19.4142 21.75 19 21.75C18.5858 21.75 18.25 21.4142 18.25 21V19.75L17 19.75C16.5858 19.75 16.25 19.4142 16.25 19C16.25 18.5858 16.5858 18.25 17 18.25H18.25V17C18.25 16.5858 18.5858 16.25 19 16.25Z" fill="white"/>
</svg>
