<svg width="24" height="24" viewBox="0 0 24 24" fill="none" xmlns="http://www.w3.org/2000/svg">
<path fill-rule="evenodd" clip-rule="evenodd" d="M11.5984 4.60039C7.73244 4.60039 4.59844 7.7344 4.59844 11.6004C4.59844 15.4664 7.73244 18.6004 11.5984 18.6004C15.4644 18.6004 18.5984 15.4664 18.5984 11.6004C18.5984 7.7344 15.4644 4.60039 11.5984 4.60039ZM3.39844 11.6004C3.39844 7.07165 7.0697 3.40039 11.5984 3.40039C16.1272 3.40039 19.7984 7.07165 19.7984 11.6004C19.7984 13.6488 19.0473 15.5218 17.8055 16.959L20.4227 19.5761C20.657 19.8104 20.657 20.1903 20.4227 20.4247C20.1884 20.659 19.8085 20.659 19.5742 20.4247L16.957 17.8075C15.5198 19.0493 13.6468 19.8004 11.5984 19.8004C7.0697 19.8004 3.39844 16.1291 3.39844 11.6004Z" fill="#59EFCC"/>
</svg>
