<svg width="30" height="30" viewBox="0 0 30 30" fill="none" xmlns="http://www.w3.org/2000/svg">
<path d="M15.75 5C15.75 4.58579 15.4142 4.25 15 4.25C14.5858 4.25 14.25 4.58579 14.25 5V8C14.25 8.41421 14.5858 8.75 15 8.75C15.4142 8.75 15.75 8.41421 15.75 8V5Z" fill="white"/>
<path fill-rule="evenodd" clip-rule="evenodd" d="M5 24.25H7V19C7 14.5817 10.5817 11 15 11C19.4183 11 23 14.5817 23 19V24.25H25C25.4142 24.25 25.75 24.5858 25.75 25C25.75 25.4142 25.4142 25.75 25 25.75H5C4.58579 25.75 4.25 25.4142 4.25 25C4.25 24.5858 4.58579 24.25 5 24.25ZM15.75 21.7993C16.1983 21.54 16.5 21.0552 16.5 20.5C16.5 19.6716 15.8284 19 15 19C14.1716 19 13.5 19.6716 13.5 20.5C13.5 21.0552 13.8016 21.54 14.25 21.7993V24.25H15.75V21.7993ZM16.5953 14.2186C16.7507 13.8346 17.188 13.6494 17.5719 13.8048C18.7629 14.2869 19.7129 15.2369 20.195 16.4278C20.3504 16.8118 20.1651 17.249 19.7812 17.4044C19.3972 17.5599 18.96 17.3746 18.8046 16.9907C18.4749 16.1762 17.8235 15.5249 17.0091 15.1952C16.6252 15.0398 16.4399 14.6025 16.5953 14.2186Z" fill="white"/>
<path d="M24.5303 8.46967C24.8232 8.76256 24.8232 9.23744 24.5303 9.53033L23.0303 11.0303C22.7374 11.3232 22.2626 11.3232 21.9697 11.0303C21.6768 10.7374 21.6768 10.2626 21.9697 9.96967L23.4697 8.46967C23.7626 8.17678 24.2374 8.17678 24.5303 8.46967Z" fill="white"/>
<path d="M6.53033 8.46967C6.23744 8.17678 5.76256 8.17678 5.46967 8.46967C5.17678 8.76256 5.17678 9.23744 5.46967 9.53033L6.96967 11.0303C7.26256 11.3232 7.73744 11.3232 8.03033 11.0303C8.32322 10.7374 8.32322 10.2626 8.03033 9.96967L6.53033 8.46967Z" fill="white"/>
</svg>
