<svg width="30" height="30" viewBox="0 0 30 30" fill="none" xmlns="http://www.w3.org/2000/svg">
<rect x="0.835938" y="0.5" width="29.1667" height="29.1667" rx="14.5833" fill="#59EFCC"/>
<path d="M14.6493 20.3488C14.8614 20.1833 15.0539 19.9909 15.4386 19.6061L20.3692 14.6756C19.6981 14.3963 18.9033 13.9375 18.1516 13.1858C17.3998 12.434 16.941 11.6391 16.6618 10.968L11.7311 15.8986L11.7311 15.8987C11.3463 16.2834 11.1539 16.4758 10.9885 16.6879C10.7933 16.9382 10.626 17.2089 10.4894 17.4954C10.3737 17.7382 10.2877 17.9963 10.1156 18.5126L9.20817 21.2348C9.12349 21.4888 9.18961 21.7689 9.37896 21.9583C9.56831 22.1476 9.84839 22.2137 10.1024 22.1291L12.8247 21.2217C13.3409 21.0496 13.599 20.9635 13.8419 20.8478C14.1283 20.7113 14.3991 20.5439 14.6493 20.3488Z" fill="#3A3A3A"/>
<path d="M21.7374 13.3074C22.7612 12.2836 22.7612 10.6237 21.7374 9.59988C20.7136 8.57608 19.0536 8.57608 18.0298 9.59988L17.4385 10.1912C17.4466 10.2157 17.455 10.2405 17.4637 10.2656C17.6804 10.8904 18.0894 11.7094 18.8588 12.4787C19.6281 13.2481 20.4471 13.657 21.0719 13.8738C21.0969 13.8824 21.1215 13.8908 21.1459 13.8989L21.7374 13.3074Z" fill="#3A3A3A"/>
</svg>
