<svg width="20" height="20" viewBox="0 0 20 20" fill="none" xmlns="http://www.w3.org/2000/svg">
<path d="M16.6693 9.9987C16.6693 13.6806 13.6845 16.6654 10.0026 16.6654C6.32071 16.6654 3.33594 13.6806 3.33594 9.9987C3.33594 6.3168 6.32071 3.33203 10.0026 3.33203C13.6845 3.33203 16.6693 6.3168 16.6693 9.9987Z" fill="#59EFCC"/>
<path fill-rule="evenodd" clip-rule="evenodd" d="M10.0026 6.83203C10.2787 6.83203 10.5026 7.05589 10.5026 7.33203V9.79159L12.0228 11.3118C12.2181 11.5071 12.2181 11.8237 12.0228 12.0189C11.8276 12.2142 11.511 12.2142 11.3157 12.0189L9.64905 10.3523C9.55528 10.2585 9.5026 10.1313 9.5026 9.9987V7.33203C9.5026 7.05589 9.72646 6.83203 10.0026 6.83203Z" fill="black"/>
</svg>
