<svg width="30" height="30" viewBox="0 0 30 30" fill="none" xmlns="http://www.w3.org/2000/svg">
<path d="M11.3518 23.2418C12.1929 24.311 13.5142 25 15 25C16.4858 25 17.8071 24.311 18.6482 23.2418C16.2264 23.57 13.7736 23.57 11.3518 23.2418Z" fill="white"/>
<path d="M21.7491 12V12.7041C21.7491 13.5491 21.9903 14.3752 22.4422 15.0782L23.5496 16.8012C24.5612 18.3749 23.789 20.5139 22.0296 21.0116C17.4273 22.3134 12.5727 22.3134 7.97036 21.0116C6.21105 20.5139 5.43882 18.3749 6.45036 16.8012L7.5578 15.0782C8.00972 14.3752 8.25087 13.5491 8.25087 12.7041V12C8.25087 8.13401 11.2726 5 15 5C18.7274 5 21.7491 8.13401 21.7491 12Z" fill="white"/>
</svg>
