<svg width="30" height="30" viewBox="0 0 30 30" fill="none" xmlns="http://www.w3.org/2000/svg">
<path fill-rule="evenodd" clip-rule="evenodd" d="M8.25 13.0546V11C8.25 7.27208 11.2721 4.25 15 4.25C18.7279 4.25 21.75 7.27208 21.75 11V13.0546C22.8648 13.1379 23.5907 13.348 24.1213 13.8787C25 14.7574 25 16.1716 25 19C25 21.8284 25 23.2426 24.1213 24.1213C23.2426 25 21.8284 25 19 25H11C8.17157 25 6.75736 25 5.87868 24.1213C5 23.2426 5 21.8284 5 19C5 16.1716 5 14.7574 5.87868 13.8787C6.40931 13.348 7.13525 13.1379 8.25 13.0546ZM9.75 11C9.75 8.1005 12.1005 5.75 15 5.75C17.8995 5.75 20.25 8.1005 20.25 11V13.0036C19.867 13 19.4515 13 19 13H11C10.5485 13 10.133 13 9.75 13.0036V11ZM15 16.25C15.4142 16.25 15.75 16.5858 15.75 17V21C15.75 21.4142 15.4142 21.75 15 21.75C14.5858 21.75 14.25 21.4142 14.25 21V17C14.25 16.5858 14.5858 16.25 15 16.25Z" fill="white"/>
</svg>
