<svg width="30" height="30" viewBox="0 0 30 30" fill="none" xmlns="http://www.w3.org/2000/svg">
<path fill-rule="evenodd" clip-rule="evenodd" d="M6.37752 8.08241C6 8.62028 6 10.2191 6 13.4167V14.9914C6 20.6294 10.239 23.3655 12.8986 24.5273C13.62 24.8424 13.9807 25 15 25C16.0193 25 16.38 24.8424 17.1014 24.5273C19.761 23.3655 24 20.6294 24 14.9914V13.4167C24 10.2191 24 8.62028 23.6225 8.08241C23.245 7.54454 21.7417 7.02996 18.7351 6.00079L18.1623 5.80472C16.595 5.26824 15.8114 5 15 5C14.1886 5 13.405 5.26824 11.8377 5.80472L11.2649 6.00079C8.25832 7.02996 6.75503 7.54454 6.37752 8.08241ZM18.0595 13.4995C18.3353 13.1905 18.3085 12.7164 17.9995 12.4405C17.6905 12.1647 17.2164 12.1915 16.9405 12.5005L13.9286 15.8739L13.0595 14.9005C12.7836 14.5915 12.3095 14.5647 12.0005 14.8405C11.6915 15.1164 11.6647 15.5905 11.9405 15.8995L13.3691 17.4995C13.5114 17.6589 13.7149 17.75 13.9286 17.75C14.1422 17.75 14.3457 17.6589 14.488 17.4995L18.0595 13.4995Z" fill="white"/>
</svg>
