<svg width="14" height="14" viewBox="0 0 14 14" fill="none" xmlns="http://www.w3.org/2000/svg">
<path d="M4.16927 0.667969C4.16927 0.391826 3.94541 0.167969 3.66927 0.167969C3.39313 0.167969 3.16927 0.391826 3.16927 0.667969V1.72081C2.20972 1.79764 1.57979 1.98622 1.11699 2.44902C0.654187 2.91182 0.465613 3.54175 0.388776 4.5013H13.6164C13.5396 3.54175 13.351 2.91182 12.8882 2.44902C12.4254 1.98622 11.7955 1.79764 10.8359 1.72081V0.667969C10.8359 0.391826 10.6121 0.167969 10.3359 0.167969C10.0598 0.167969 9.83594 0.391826 9.83594 0.667969V1.67657C9.39243 1.66797 8.8953 1.66797 8.33594 1.66797H5.66927C5.10992 1.66797 4.61278 1.66797 4.16927 1.67657V0.667969Z" fill="#59EFCC"/>
<path fill-rule="evenodd" clip-rule="evenodd" d="M0.335938 7.0013C0.335938 6.44195 0.335938 5.94481 0.344539 5.5013H13.6607C13.6693 5.94481 13.6693 6.44195 13.6693 7.0013V8.33464C13.6693 10.8488 13.6693 12.1059 12.8882 12.8869C12.1072 13.668 10.8501 13.668 8.33594 13.668H5.66927C3.15511 13.668 1.89804 13.668 1.11699 12.8869C0.335938 12.1059 0.335938 10.8488 0.335938 8.33464V7.0013ZM10.3359 8.33464C10.7041 8.33464 11.0026 8.03616 11.0026 7.66797C11.0026 7.29978 10.7041 7.0013 10.3359 7.0013C9.96775 7.0013 9.66927 7.29978 9.66927 7.66797C9.66927 8.03616 9.96775 8.33464 10.3359 8.33464ZM10.3359 11.0013C10.7041 11.0013 11.0026 10.7028 11.0026 10.3346C11.0026 9.96645 10.7041 9.66797 10.3359 9.66797C9.96775 9.66797 9.66927 9.96645 9.66927 10.3346C9.66927 10.7028 9.96775 11.0013 10.3359 11.0013ZM7.66927 7.66797C7.66927 8.03616 7.3708 8.33464 7.00261 8.33464C6.63442 8.33464 6.33594 8.03616 6.33594 7.66797C6.33594 7.29978 6.63442 7.0013 7.00261 7.0013C7.3708 7.0013 7.66927 7.29978 7.66927 7.66797ZM7.66927 10.3346C7.66927 10.7028 7.3708 11.0013 7.00261 11.0013C6.63442 11.0013 6.33594 10.7028 6.33594 10.3346C6.33594 9.96645 6.63442 9.66797 7.00261 9.66797C7.3708 9.66797 7.66927 9.96645 7.66927 10.3346ZM3.66927 8.33464C4.03746 8.33464 4.33594 8.03616 4.33594 7.66797C4.33594 7.29978 4.03746 7.0013 3.66927 7.0013C3.30108 7.0013 3.0026 7.29978 3.0026 7.66797C3.0026 8.03616 3.30108 8.33464 3.66927 8.33464ZM3.66927 11.0013C4.03746 11.0013 4.33594 10.7028 4.33594 10.3346C4.33594 9.96645 4.03746 9.66797 3.66927 9.66797C3.30108 9.66797 3.0026 9.96645 3.0026 10.3346C3.0026 10.7028 3.30108 11.0013 3.66927 11.0013Z" fill="#59EFCC"/>
</svg>
