<svg width="30" height="30" viewBox="0 0 30 30" fill="none" xmlns="http://www.w3.org/2000/svg">
<path fill-rule="evenodd" clip-rule="evenodd" d="M25 15C25 20.5229 20.5229 25 15 25C9.47715 25 5 20.5229 5 15C5 9.47715 9.47715 5 15 5C20.5229 5 25 9.47715 25 15ZM15 10.75C14.3787 10.75 13.875 11.2537 13.875 11.875C13.875 12.2892 13.5392 12.625 13.125 12.625C12.7108 12.625 12.375 12.2892 12.375 11.875C12.375 10.4253 13.5503 9.25 15 9.25C16.4497 9.25 17.625 10.4253 17.625 11.875C17.625 12.5858 17.3415 13.232 16.883 13.704C16.7907 13.7989 16.7027 13.8869 16.6187 13.9708C16.4029 14.1864 16.2138 14.3753 16.0479 14.5885C15.8289 14.8699 15.75 15.0768 15.75 15.25V16C15.75 16.4142 15.4142 16.75 15 16.75C14.5858 16.75 14.25 16.4142 14.25 16V15.25C14.25 14.5948 14.555 14.0644 14.8642 13.6672C15.0929 13.3733 15.3804 13.0863 15.6138 12.8535C15.6842 12.7832 15.7496 12.7179 15.8071 12.6588C16.0046 12.4554 16.125 12.18 16.125 11.875C16.125 11.2537 15.6213 10.75 15 10.75ZM15 20C15.5523 20 16 19.5523 16 19C16 18.4477 15.5523 18 15 18C14.4477 18 14 18.4477 14 19C14 19.5523 14.4477 20 15 20Z" fill="white"/>
</svg>
